<defs>
<font horiz-adv-x="596" ><font-face
    font-family="alfaslabone-regular"
    units-per-em="1000"
    panose-1="2 0 5 7 5 0 0 2 0 4"
    ascent="1036"
    descent="-333"
    alphabetic="0" />
<missing-glyph horiz-adv-x="782" d="M88 778H694V-222H88V778ZM441 277L581 -69V624L441 277ZM340 277L201 624V-69L340 277ZM391 403L500 674H282L391 403ZM391 152L282 -118H500L391 152Z" />
<glyph unicode=";" glyph-name="uni0001" horiz-adv-x="0" />
<glyph unicode=";" glyph-name="uni0002" horiz-adv-x="0" />
<glyph unicode=";" glyph-name="uni0003" horiz-adv-x="0" />
<glyph unicode=";" glyph-name="uni0004" horiz-adv-x="0" />
<glyph unicode=";" glyph-name="uni0005" horiz-adv-x="0" />
<glyph unicode=";" glyph-name="uni0006" horiz-adv-x="0" />
<glyph unicode=";" glyph-name="uni0007" horiz-adv-x="0" />
<glyph unicode=";" glyph-name="uni0008" horiz-adv-x="0" />
<glyph unicode="&#x9;" glyph-name="uni0009" horiz-adv-x="0" />
<glyph unicode="0;" glyph-name="uni0010" horiz-adv-x="0" />
<glyph unicode="1;" glyph-name="uni0011" horiz-adv-x="0" />
<glyph unicode="2;" glyph-name="uni0012" horiz-adv-x="0" />
<glyph unicode="3;" glyph-name="uni0013" horiz-adv-x="0" />
<glyph unicode=";" glyph-name="uni0014" horiz-adv-x="0" />
<glyph unicode="5;" glyph-name="uni0015" horiz-adv-x="0" />
<glyph unicode="6;" glyph-name="uni0016" horiz-adv-x="0" />
<glyph unicode="7;" glyph-name="uni0017" horiz-adv-x="0" />
<glyph unicode="8;" glyph-name="uni0018" horiz-adv-x="0" />
<glyph unicode=";" glyph-name="uni0019" horiz-adv-x="0" />
<glyph unicode=" " glyph-name="space" horiz-adv-x="300" />
<glyph unicode="!" glyph-name="exclam" horiz-adv-x="343" d="M53 153H284V0H53V153ZM20 727V778H319V727L272 187H66L20 727Z" />
<glyph unicode="&quot;" glyph-name="quotedbl" horiz-adv-x="403" d="M71 778H205L128 556H28L71 778ZM244 778H377L301 556H201L244 778Z" />
<glyph unicode="#" glyph-name="numbersign" horiz-adv-x="732" d="M398 193H279L256 0H113V22L134 193H22L38 332H151L164 437H42L58 576H182L207 778H349V756L326 576H446L471 778H613V756L590 576H710L694 437H573L560 332H690L674 193H543L520 0H377V22L398
193ZM296 332H415L428 437H309L296 332Z" />
<glyph unicode="$" glyph-name="dollar" horiz-adv-x="686" d="M279 -132V-12Q185 -6 127 10T31 40V238H251Q251 208 263 194T313 179Q346 179 360 189T374 219Q374 233 363 243T316 268Q242 296 187 321T95 378T40 450T22 551Q22 600 35 640T79 711T158 761T279
788V903H410V790Q457 787 493 781T559 766T614 748T655 728V549H445Q445 578 429 588T390 599Q357 599 343 591T328 561Q328 544 343 536T390 518Q448 499 499 478T590 426T651 351T674 243Q674 128 607 65T410 -11V-132H279Z" />
<glyph unicode="%" glyph-name="percent" horiz-adv-x="850" d="M629 778H771V746L221 0H78V32L629 778ZM487 187Q487 244 499 282T535 344T590 378T663 388Q702 388 734 378T788 344T823 282T836 187Q836 130 824 92T789 30T734 -4T663 -14Q623 -14 591 -4T535
29T500 91T487 187ZM627 190Q627 158 628 139T633 109T643 95T660 92Q670 92 677 96T687 111T692 141T694 190Q694 220 693 239T688 269T678 284T660 288Q650 288 644 284T634 269T629 239T627 190ZM14 591Q14 648 26 686T62 748T117 782T190 792Q229 792 261 782T315
748T350 686T363 591Q363 534 351 496T316 434T261 400T190 390Q150 390 118 400T62 433T27 495T14 591ZM154 594Q154 562 155 543T160 513T170 499T187 496Q198 496 204 500T215 515T220 545T221 594Q221 624 220 643T215 673T205 688T187 692Q177 692 171 688T161
673T156 643T154 594Z" />
<glyph unicode="&amp;" glyph-name="ampersand" horiz-adv-x="787" d="M428 540Q428 579 411 596T360 614Q326 614 312 599T297 561Q297 550 303 540T318 521T339 504T362 486L525 363Q527 375 528 387T529 411V429H770V262H712L703 229L793 161L671 0L598 56Q561
28 501 7T349 -14Q174 -14 85 45T-5 210Q-5 247 7 277T39 332T86 376T142 409Q91 447 61 488T30 589Q30 638 54 676T121 739T222 778T350 792Q406 792 450 785T530 767T591 743T638 718V526H428V540ZM360 164Q406 164 435 182L308 280Q289 270 278 254T267 216Q267
190 286 177T360 164Z" />
<glyph unicode="&apos;" glyph-name="quotesingle" horiz-adv-x="254" d="M71 778H228L151 556H28L71 778Z" />
<glyph unicode="(" glyph-name="parenleft" horiz-adv-x="350" d="M36 328Q36 439 57 527T110 684T181 803T255 888L364 838Q340 801 315 752T269 639T235 499T222 328Q222 234 235 157T269 17T315 -93T364 -177L255 -229Q220 -196 182 -147T111 -30T57 127T36 328Z" />
<glyph unicode=")" glyph-name="parenright" horiz-adv-x="350" d="M314 328Q314 216 293 127T239 -30T168 -147T95 -229L-14 -177Q9 -141 34 -93T80 17T114 157T128 328Q128 421 115 498T80 638T34 750T-14 838L95 888Q129 854 168 804T239 685T292 528T314 328Z" />
<glyph unicode="*" glyph-name="asterisk" horiz-adv-x="409" d="M247 667L321 729L332 736L393 633L381 626L280 593L381 560L393 551L332 451L247 518L265 424V409H145V424L163 518L88 458L76 451L16 551L27 560L127 593L27 626L16 633L76 736L88 729L163 667L145
761V778H265V761L247 667Z" />
<glyph unicode="+" glyph-name="plus" horiz-adv-x="576" d="M205 426V591H372V426H536V259H372V94H205V259H40V426H205Z" />
<glyph unicode="," glyph-name="comma" horiz-adv-x="245" d="M41 164H197V0L126 -161H40L92 0H41V164Z" />
<glyph unicode="-" glyph-name="hyphen" horiz-adv-x="389" d="M34 237V401H355V237H34Z" />
<glyph unicode="." glyph-name="period" horiz-adv-x="244" d="M40 164H196V0H40V164Z" />
<glyph unicode="/" glyph-name="slash" horiz-adv-x="423" d="M301 842H443V810L123 -151H-20V-119L301 842Z" />
<glyph unicode="0" glyph-name="zero" horiz-adv-x="732" d="M366 164Q400 164 417 181T434 238V540Q434 579 417 596T366 614Q332 614 315 597T298 540V238Q298 199 315 182T366 164ZM718 389Q718 279 693 203T623 78T512 8T366 -14Q285 -14 220 8T110 78T39
202T14 389Q14 498 39 575T109 700T220 770T366 792Q447 792 512 770T622 700T693 575T718 389Z" />
<glyph unicode="1" glyph-name="one" horiz-adv-x="529" d="M14 727L236 778H429V164H513V0H44V164H140V614H14V727Z" />
<glyph unicode="2" glyph-name="two" horiz-adv-x="649" d="M12 153Q90 219 155 278T267 388T340 477T366 540Q366 579 349 596T298 614Q264 614 247 597T230 540V490H30V727Q56 740 87 750T160 771T249 786T346 792Q488 792 558 735T628 565Q628 504 600 449T527
343T431 248T330 164H452V221H647V0H12V153Z" />
<glyph unicode="3" glyph-name="three" horiz-adv-x="623" d="M218 473H289Q327 473 343 491T360 540Q360 579 343 596T292 614Q258 614 241 597T224 540V523H24V727Q42 737 67 748T128 770T208 786T310 792Q451 792 523 734T596 570Q596 536 587 510T565 463T535
428T504 402V392Q520 382 538 368T573 334T600 286T611 221Q611 168 592 125T535 50T438 3T300 -14Q246 -14 204 -8T128 8T69 30T24 55V266H224V238Q224 199 241 182T292 164Q326 164 343 182T360 248Q360 285 344 303T290 322H218V473Z" />
<glyph unicode="4" glyph-name="four" horiz-adv-x="694" d="M139 778H376L253 383H343V520H602V383H682V231H602V176H663V0H216V176H343V231H18V402L139 778Z" />
<glyph unicode="5" glyph-name="five" horiz-adv-x="651" d="M65 778H597V584H265L256 480Q282 495 321 504T392 514Q450 514 496 496T573 446T620 368T637 267Q637 128 555 52T323 -24Q268 -24 224 -18T143 -1T80 23T31 48V249H263Q263 214 273 195T317 176Q346
176 357 197T369 266Q369 317 358 340T315 363Q285 363 274 345T263 303H73L28 372L65 778Z" />
<glyph unicode="6" glyph-name="six" horiz-adv-x="693" d="M636 581Q601 592 550 603T439 614Q367 614 335 576T302 477V448Q332 459 372 467T449 476Q494 476 536 466T612 431T665 362T685 253Q685 114 603 50T370 -14Q289 -14 224 7T114 71T43 179T18 334Q18
457 45 544T123 686T242 766T395 792Q438 792 474 788T540 776T593 759T636 742V581ZM367 319Q355 319 338 316T302 306V238Q302 199 319 182T370 164Q404 164 421 181T438 238Q438 319 367 319Z" />
<glyph unicode="7" glyph-name="seven" horiz-adv-x="630" d="M10 778H638V626Q574 522 540 452T482 325T442 214T415 106T405 0H122Q122 78 145 156T205 309T284 456T369 584H220V492H10V778Z" />
<glyph unicode="8" glyph-name="eight" horiz-adv-x="700" d="M10 212Q10 258 24 290T59 345T104 381T150 400V410Q131 416 110 427T72 458T44 504T32 570Q32 616 52 656T112 727T211 774T350 792Q429 792 488 775T587 727T646 657T666 570Q666 532 654 504T625
457T587 427T549 410V400Q570 394 594 381T640 347T675 294T690 218Q690 165 668 123T602 50T496 3T350 -14Q268 -14 205 2T98 49T33 120T10 212ZM428 238Q428 286 409 306T350 326Q311 326 292 306T272 238Q272 199 291 182T350 164Q389 164 408 181T428 238ZM282
540Q282 513 299 496T350 478Q384 478 401 495T418 540Q418 579 401 596T350 614Q316 614 299 597T282 540Z" />
<glyph unicode="9" glyph-name="nine" horiz-adv-x="693" d="M54 197Q93 184 147 174T271 164Q332 164 362 199T393 301V322Q366 312 330 303T246 294Q201 294 159 304T83 339T30 408T10 520Q10 662 91 727T325 792Q408 792 473 771T584 707T653 599T677 444Q677
317 652 230T577 88T458 10T300 -14Q215 -14 156 2T54 36V197ZM328 451Q347 451 363 455T393 464V540Q393 579 376 596T325 614Q291 614 274 596T257 530Q257 451 328 451Z" />
<glyph unicode=":" glyph-name="colon" horiz-adv-x="244" d="M40 519H196V355H40V519ZM40 164H196V0H40V164Z" />
<glyph unicode=";" glyph-name="semicolon" horiz-adv-x="245" d="M41 164H197V0L126 -161H40L92 0H41V164ZM41 519H197V355H41V519Z" />
<glyph unicode="&lt;" glyph-name="less" horiz-adv-x="499" d="M434 69L36 230V414L434 576H455V420L184 328V317L455 224V69H434Z" />
<glyph unicode="=" glyph-name="equal" horiz-adv-x="495" d="M455 289V122H40V289H455ZM455 553V387H40V553H455Z" />
<glyph unicode="&gt;" glyph-name="greater" horiz-adv-x="499" d="M44 69V224L315 317V328L44 420V576H65L463 414V230L65 69H44Z" />
<glyph unicode="?" glyph-name="question" horiz-adv-x="614" d="M141 211V265Q141 307 154 337T189 389T233 427T278 459T312 491T326 530Q326 547 313 558T266 570Q237 570 208 565T152 551T101 532T55 511L2 715Q29 728 62 741T135 766T221 784T318 792Q385
792 439 776T530 730T588 661T608 575Q608 516 591 479T549 417T494 373T439 334T397 285T380 211H141ZM141 164H379V0H141V164Z" />
<glyph unicode="@" glyph-name="at" horiz-adv-x="1148" d="M520 208Q520 179 532 167T566 154Q588 154 606 167T636 195V425Q628 427 614 429T586 432Q554 432 537 407T520 348V208ZM699 -205Q661 -217 610 -226T484 -236Q267 -236 150 -124T32 215Q32 348 79
455T206 637T395 752T625 792Q739 792 829 762T982 675T1078 540T1112 363Q1112 264 1086 193T1019 76T925 8T820 -14Q780 -14 752 -5T705 18T675 51T659 89Q648 73 631 55T589 22T536 -4T472 -14Q375 -14 326 53T276 235Q276 320 302 383T373 487T479 549T610
570Q673 570 741 553T866 510V161Q866 150 872 145T887 139Q910 139 930 192T950 341Q950 494 859 568T604 642Q512 642 437 612T307 528T224 397T194 229Q194 143 216 84T279 -13T376 -67T500 -84Q581 -84 626 -77T699 -60V-205Z" />
<glyph unicode="A" glyph-name="A" horiz-adv-x="806" d="M408 164H468L451 244H316L300 164H360V0H18V164H58L227 778H591L760 164H800V0H408V164ZM338 350H430L389 549H379L338 350Z" />
<glyph unicode="B" glyph-name="B" horiz-adv-x="795" d="M26 778H495Q618 778 689 728T760 581Q760 533 742 499T698 443T644 409T594 393V383Q616 381 648 374T709 347T758 293T779 202Q779 146 756 108T694 45T604 11T495 0H26V164H86V614H26V778ZM420 450Q449
450 463 465T478 514V550Q478 584 464 599T420 614H366V450H420ZM427 164Q456 164 470 179T485 228V272Q485 306 471 321T427 336H366V164H427Z" />
<glyph unicode="C" glyph-name="C" horiz-adv-x="738" d="M468 319H708V60Q688 48 660 35T594 11T509 -7T402 -14Q314 -14 243 8T122 78T45 202T18 389Q18 498 45 575T121 700T242 770T400 792Q460 792 507 785T591 768T657 744T708 718V468H468V540Q468 579 451
596T400 614Q366 614 349 597T332 540V238Q332 199 349 182T400 164Q434 164 451 181T468 238V319Z" />
<glyph unicode="D" glyph-name="D" horiz-adv-x="826" d="M28 778H444Q521 778 587 759T703 693T780 573T808 389Q808 279 780 205T703 85T588 20T444 0H28V164H88V613H28V778ZM426 164Q460 164 477 181T494 238V540Q494 579 476 596T426 614H368V164H426Z" />
<glyph unicode="E" glyph-name="E" horiz-adv-x="735" d="M487 614H366V456H454V342H366V164H487V322H711V0H26V164H86V614H26V778H711V476H487V614Z" />
<glyph unicode="F" glyph-name="F" horiz-adv-x="644" d="M459 614H368V448H519V334H368V164H499V0H28V164H88V614H28V778H636V519H459V614Z" />
<glyph unicode="G" glyph-name="G" horiz-adv-x="792" d="M426 399H780V250H730V50Q707 39 677 28T607 7T518 -8T409 -14Q319 -14 247 8T125 78T47 202T20 389Q20 498 47 575T124 700T246 770T407 792Q468 792 517 786T606 771T676 750T730 727V488H480V535Q480
578 463 596T407 614Q369 614 352 596T334 535V243Q334 200 351 182T407 164Q445 164 462 182T480 243V250H426V399Z" />
<glyph unicode="H" glyph-name="H" horiz-adv-x="868" d="M463 778H854V614H794V164H854V0H463V164H514V329H364V164H415V0H24V164H84V614H24V778H415V614H364V462H514V614H463V778Z" />
<glyph unicode="I" glyph-name="I" horiz-adv-x="438" d="M24 778H424V614H364V164H424V0H24V164H84V614H24V778Z" />
<glyph unicode="J" glyph-name="J" horiz-adv-x="522" d="M105 164Q139 164 159 185T180 258V614H69V778H520V614H460V267Q460 190 437 137T373 50T278 1T162 -14Q117 -14 75 -8T14 7V175Q36 170 61 167T105 164Z" />
<glyph unicode="K" glyph-name="K" horiz-adv-x="834" d="M767 614L610 412L782 164H822V0H524L366 274V0H26V164H86V614H26V778H366V509L549 778H807V614H767Z" />
<glyph unicode="L" glyph-name="L" horiz-adv-x="671" d="M26 778H458V614H366V164H456V256H655V0H26V164H86V614H26V778Z" />
<glyph unicode="M" glyph-name="M" horiz-adv-x="1203" d="M24 778H502L616 435L726 778H1187V614H1127V164H1187V0H787V164H847V559L648 0H540L314 561V164H374V0H24V164H84V614H24V778Z" />
<glyph unicode="N" glyph-name="N" horiz-adv-x="952" d="M596 778H946V614H886V0H605L312 451V164H372V0H22V164H82V614H22V778H393L656 376V614H596V778Z" />
<glyph unicode="O" glyph-name="O" horiz-adv-x="798" d="M402 164Q436 164 453 181T470 238V540Q470 579 453 596T402 614Q368 614 351 597T334 540V238Q334 199 351 182T402 164ZM784 389Q784 279 757 203T681 78T560 8T402 -14Q315 -14 244 8T124 78T47 202T20
389Q20 498 47 575T123 700T244 770T402 792Q489 792 560 770T680 700T757 575T784 389Z" />
<glyph unicode="P" glyph-name="P" horiz-adv-x="754" d="M402 450Q430 450 445 465T460 514V550Q460 584 446 599T402 614H368V450H402ZM464 0H28V164H88V614H28V778H477Q538 778 587 766T671 725T723 652T742 543Q742 478 724 434T671 361T588 321T477 308H368V164H464V0Z"
/>
<glyph unicode="Q" glyph-name="Q" horiz-adv-x="812" d="M398 164Q432 164 449 181T466 238V540Q466 579 449 596T398 614Q364 614 347 597T330 540V238Q330 199 347 182T398 164ZM780 419Q780 363 768 322T738 252T702 204T671 174L677 164H796V-78Q638 -78
535 -72T363 -50T248 -14Q218 -2 176 26T92 107T34 229T16 389Q16 498 43 575T119 700T240 770T398 792Q485 792 556 770T676 701T753 585T780 419Z" />
<glyph unicode="R" glyph-name="R" horiz-adv-x="814" d="M366 164H432V0H26V164H86V614H26V778H495Q556 778 605 766T689 728T741 658T760 553Q760 487 734 438T656 369L657 359Q753 344 753 241V164H800V0H483V235Q483 265 477 283T456 311T419 324T366 328V164ZM420
450Q449 450 463 465T478 514V550Q478 584 464 599T420 614H366V450H420Z" />
<glyph unicode="S" glyph-name="S" horiz-adv-x="686" d="M313 179Q346 179 360 189T374 219Q374 233 363 243T316 268Q242 296 187 321T95 378T40 450T22 551Q22 607 39 651T96 727T201 775T363 792Q450 792 527 775T655 728V549H445Q445 578 429 588T390 599Q357
599 343 591T328 561Q328 544 343 536T390 518Q448 499 499 478T590 426T651 351T674 243Q674 113 590 50T344 -14Q252 -14 167 2T31 40V238H251Q251 208 263 194T313 179Z" />
<glyph unicode="T" glyph-name="T" horiz-adv-x="770" d="M16 778H768V536H596V614H532V164H602V0H182V164H252V614H188V536H16V778Z" />
<glyph unicode="U" glyph-name="U" horiz-adv-x="795" d="M731 279Q731 198 709 143T644 52T543 2T410 -14Q335 -14 275 1T172 52T106 142T82 279V614H22V778H402V614H362V228Q362 194 376 179T420 164Q449 164 463 179T478 228V614H438V778H791V614H731V279Z" />
<glyph unicode="V" glyph-name="V" horiz-adv-x="776" d="M396 614H346L415 219H425L494 614H444V778H776V614H736L577 0H213L54 614H14V778H396V614Z" />
<glyph unicode="W" glyph-name="W" horiz-adv-x="1257" d="M193 0L54 614H14V778H411V614H346L395 239H405L520 778H808L916 239H926L975 614H910V778H1257V614H1217L1088 0H739L648 412H638L542 0H193Z" />
<glyph unicode="X" glyph-name="X" horiz-adv-x="826" d="M762 614L655 398L772 164H812V0H494L410 254H390L306 0H28V164H68L184 397L77 614H37V778H355L429 546H449L524 778H802V614H762Z" />
<glyph unicode="Y" glyph-name="Y" horiz-adv-x="755" d="M395 614H360L419 439H429L488 614H453V778H755V614H720L527 268V164H587V0H187V164H247V268L48 614H12V778H395V614Z" />
<glyph unicode="Z" glyph-name="Z" horiz-adv-x="697" d="M330 614H236V532H37V778H667V634L360 164H484V246H683V0H22V144L330 614Z" />
<glyph unicode="[" glyph-name="bracketleft" horiz-adv-x="325" d="M44 873L311 896L323 767L212 744V-134L323 -157L311 -286L44 -263V873Z" />
<glyph unicode="\" glyph-name="backslash" horiz-adv-x="424" d="M444 -119V-151H300L-20 810V842H123L444 -119Z" />
<glyph unicode="]" glyph-name="bracketright" horiz-adv-x="325" d="M281 -263L14 -286L2 -157L113 -134V744L2 767L14 896L281 873V-263Z" />
<glyph unicode="^" glyph-name="asciicircum" horiz-adv-x="413" d="M211 664H202L140 522H14V537L131 778H282L399 537V522H273L211 664Z" />
<glyph unicode="_" glyph-name="underscore" horiz-adv-x="632" d="M16 -72H616V-166H16V-72Z" />
<glyph unicode="`" glyph-name="grave" horiz-adv-x="267" d="M-42 751V778H172L281 626V611H121L-42 751Z" />
<glyph unicode="a" glyph-name="a" horiz-adv-x="652" d="M368 68Q359 56 344 42T308 15T258 -5T193 -14Q106 -14 57 26T8 142Q8 237 96 285T368 334Q368 362 350 377T276 392Q216 392 156 383T44 363V535Q95 549 169 559T321 570Q401 570 454 555T540 510T585
434T598 328V164H642V0H368V68ZM368 234Q306 234 279 226T252 196Q252 164 307 164Q368 164 368 228V234Z" />
<glyph unicode="b" glyph-name="b" horiz-adv-x="664" d="M292 488Q301 500 315 514T350 541T394 561T447 570Q551 570 601 494T652 278Q652 139 602 63T447 -14Q418 -14 394 -6T350 15T316 41T292 68V0H18V164H62V614H18V778H292V488ZM408 328Q408 362 394 377T350
392Q321 392 307 377T292 328V228Q292 194 306 179T350 164Q379 164 393 179T408 228V328Z" />
<glyph unicode="c" glyph-name="c" horiz-adv-x="554" d="M252 242Q252 205 272 185T341 164Q390 164 439 169T534 182V25Q515 18 493 11T444 -1T385 -10T311 -14Q241 -14 185 4T90 58T29 149T8 278Q8 351 29 406T89 497T185 552T310 570Q352 570 386 564T449
549T499 529T540 508V310H368V328Q368 362 354 377T310 392Q282 392 267 377T252 328V242Z" />
<glyph unicode="d" glyph-name="d" horiz-adv-x="656" d="M372 614H313V778H602V164H646V0H372V68Q363 56 348 42T314 15T270 -5T217 -14Q113 -14 63 62T12 278Q12 417 62 493T217 570Q245 570 269 562T313 541T348 515T372 488V614ZM256 228Q256 194 270 179T314
164Q343 164 357 179T372 228V328Q372 362 358 377T314 392Q285 392 271 377T256 328V228Z" />
<glyph unicode="e" glyph-name="e" horiz-adv-x="588" d="M310 570Q387 570 438 548T520 489T563 407T576 314V242H252V236Q252 200 272 182T347 164Q413 164 468 174T559 196V36Q541 27 518 19T464 3T396 -9T310 -14Q241 -14 185 4T90 58T29 149T8 278Q8 351
29 406T89 497T185 552T310 570ZM310 392Q281 392 267 377T252 328V322H368V328Q368 362 354 377T310 392Z" />
<glyph unicode="f" glyph-name="f" horiz-adv-x="380" d="M18 556H64Q64 677 124 734T297 792Q340 792 377 785T439 766V609Q414 612 398 613T361 614Q322 614 307 601T292 556H370V392H292V164H370V0H18V164H62V392H18V556Z" />
<glyph unicode="g" glyph-name="g" horiz-adv-x="656" d="M372 556H646V392H602V40Q602 -34 584 -86T528 -172T437 -220T313 -236Q247 -236 179 -226T74 -203V-39Q116 -47 165 -52T264 -58Q323 -58 347 -40T372 25V68Q363 56 348 42T314 15T270 -5T217 -14Q113
-14 63 62T12 278Q12 417 62 493T217 570Q245 570 269 562T313 541T348 515T372 488V556ZM256 228Q256 194 270 179T314 164Q343 164 357 179T372 228V328Q372 362 358 377T314 392Q285 392 271 377T256 328V228Z" />
<glyph unicode="h" glyph-name="h" horiz-adv-x="692" d="M364 164H408V328Q408 362 394 377T350 392Q321 392 307 377T292 328V164H336V0H18V164H62V614H18V778H292V488Q304 500 319 514T354 541T401 561T461 570Q543 570 590 512T638 328V164H682V0H364V164Z" />
<glyph unicode="i" glyph-name="i" horiz-adv-x="346" d="M292 164H336V0H18V164H62V392H18V556H292V164ZM86 778H270V611H86V778Z" />
<glyph unicode="j" glyph-name="j" horiz-adv-x="327" d="M4 556H301V34Q301 -105 244 -170T68 -236Q26 -236 -14 -230T-90 -214V-51Q-59 -55 -36 -56T4 -58Q36 -58 53 -41T71 14V392H4V556ZM95 778H279V611H95V778Z" />
<glyph unicode="k" glyph-name="k" horiz-adv-x="674" d="M610 392L525 297L621 164H664V0H419L316 192H292V0H18V164H62V614H18V778H292V372H316L440 556H651V392H610Z" />
<glyph unicode="l" glyph-name="l" horiz-adv-x="346" d="M18 778H292V164H336V0H18V164H62V614H18V778Z" />
<glyph unicode="m" glyph-name="m" horiz-adv-x="1038" d="M364 164H408V328Q408 362 394 377T350 392Q321 392 307 377T292 328V164H336V0H18V164H62V392H18V556H292V488Q304 500 319 514T354 541T401 561T461 570Q495 570 520 563T563 544T595 518T618 488Q633
502 650 516T689 543T740 562T807 570Q889 570 936 512T984 328V164H1028V0H710V164H754V328Q754 362 740 377T696 392Q667 392 653 377T638 328V164H682V0H364V164Z" />
<glyph unicode="n" glyph-name="n" horiz-adv-x="688" d="M362 164H406V328Q406 362 392 377T348 392Q319 392 305 377T290 328V164H334V0H16V164H60V392H16V556H290V488Q302 500 317 514T352 541T399 561T459 570Q541 570 588 512T636 328V164H680V0H362V164Z" />
<glyph unicode="o" glyph-name="o" horiz-adv-x="620" d="M612 278Q612 204 591 150T531 59T435 4T310 -14Q241 -14 185 4T90 58T29 149T8 278Q8 351 29 406T89 497T185 552T310 570Q379 570 435 552T530 498T591 406T612 278ZM310 164Q339 164 353 179T368 228V328Q368
362 354 377T310 392Q281 392 267 377T252 328V228Q252 194 266 179T310 164Z" />
<glyph unicode="p" glyph-name="p" horiz-adv-x="650" d="M347 -222H4V-58H48V392H4V556H278V488Q287 500 301 514T336 541T380 561T433 570Q537 570 587 494T638 278Q638 139 588 63T433 -14Q404 -14 380 -6T336 15T302 41T278 68V-58H347V-222ZM394 328Q394
362 380 377T336 392Q307 392 293 377T278 328V228Q278 194 292 179T336 164Q365 164 379 179T394 228V328Z" />
<glyph unicode="q" glyph-name="q" horiz-adv-x="654" d="M372 68Q363 56 348 42T314 15T270 -5T217 -14Q113 -14 63 62T12 278Q12 417 62 493T217 570Q245 570 269 562T313 541T348 515T372 488V556H646V392H602V-222H303V-58H372V68ZM256 228Q256 194 270 179T314
164Q343 164 357 179T372 228V328Q372 362 358 377T314 392Q285 392 271 377T256 328V228Z" />
<glyph unicode="r" glyph-name="r" horiz-adv-x="521" d="M18 556H292V490L302 487Q309 501 320 516T347 543T383 562T430 570Q451 570 471 567T511 556V383Q478 389 456 390T418 392Q352 392 322 363T292 261V164H383V0H18V164H62V392H18V556Z" />
<glyph unicode="s" glyph-name="s" horiz-adv-x="534" d="M35 156Q110 145 158 142T234 138Q278 138 292 145T306 164Q306 177 291 183T229 197Q125 211 66 257T6 387Q6 426 20 459T65 517T144 556T261 570Q335 570 394 562T493 540V405Q445 411 396 415T303 419Q261
419 244 413T226 395Q226 389 229 385T240 377T264 371T302 366Q418 355 473 309T528 178Q528 89 467 38T276 -14Q200 -14 138 -5T35 17V156Z" />
<glyph unicode="t" glyph-name="t" horiz-adv-x="447" d="M292 556H427V392H292V228Q292 194 306 179T350 164Q390 164 433 173V16Q401 4 357 -5T261 -14Q210 -14 171 -3T104 34T63 104T48 211V392H4V556Q44 556 62 576T80 629V674H292V556Z" />
<glyph unicode="u" glyph-name="u" horiz-adv-x="676" d="M276 228Q276 194 290 179T334 164Q363 164 377 179T392 228V392H338V556H622V164H666V0H392V68Q380 55 365 41T329 15T283 -5T223 -14Q141 -14 94 44T46 228V392H2V556H276V228Z" />
<glyph unicode="v" glyph-name="v" horiz-adv-x="642" d="M316 556V392H271L325 164H335L389 392H344V556H638V392H595L491 0H153L46 392H4V556H316Z" />
<glyph unicode="w" glyph-name="w" horiz-adv-x="965" d="M316 556V392H271L307 186H317L394 556H588L669 186H679L712 392H666V556H961V392H918L821 0H523L487 168H477L443 0H148L46 392H4V556H316Z" />
<glyph unicode="x" glyph-name="x" horiz-adv-x="633" d="M576 392L524 275L580 164H623V0H358L308 188H288L243 0H18V164H65L121 285L68 392H25V556H291L337 373H357L399 556H617V392H576Z" />
<glyph unicode="y" glyph-name="y" horiz-adv-x="648" d="M276 228Q276 194 290 179T334 164Q363 164 377 179T392 228V392H338V556H622V56Q622 -94 547 -165T321 -236Q249 -236 182 -227T67 -203V-39Q122 -49 171 -53T284 -58Q338 -58 365 -42T392 26V68Q380
55 365 41T329 15T283 -5T223 -14Q141 -14 94 44T46 228V392H2V556H276V228Z" />
<glyph unicode="z" glyph-name="z" horiz-adv-x="558" d="M254 392H165V356H16V556H541V413L303 164H399V220H550V0H10V149L254 392Z" />
<glyph unicode="{" glyph-name="braceleft" horiz-adv-x="299" d="M22 358Q31 358 41 361T59 372T72 393T78 428Q78 472 74 504T65 567T56 631T52 709Q52 760 73 788T127 831T198 849T271 853V764Q250 764 234 752T217 699Q217 660 220 631T228 573T237 513T241
440Q241 380 219 349T164 303Q196 289 218 258T241 167Q241 125 237 94T229 35T221 -23T217 -92Q217 -113 222 -125T235 -145T252 -155T271 -158V-247Q237 -247 199 -244T128 -226T74 -182T52 -102Q52 -58 56 -25T65 38T74 102T78 179Q78 200 73 213T59 235T41
246T22 249V358Z" />
<glyph unicode="|" glyph-name="bar" horiz-adv-x="255" d="M62 -327V940H193V-327H62Z" />
<glyph unicode="}" glyph-name="braceright" horiz-adv-x="299" d="M277 249Q268 249 259 246T241 235T228 214T222 179Q222 135 226 102T234 39T243 -25T247 -102Q247 -153 226 -182T172 -225T101 -243T28 -247V-158Q37 -158 47 -156T65 -146T78 -126T83 -92Q83
-53 79 -24T71 34T62 94T58 167Q58 227 81 258T136 303Q104 317 81 348T58 440Q58 482 62 513T70 572T79 630T83 699Q83 739 66 751T28 764V853Q62 853 100 850T171 832T225 789T247 709Q247 664 243 631T235 568T226 505T222 428Q222 407 227 394T241 372T258
361T277 358V249Z" />
<glyph unicode="~" glyph-name="asciitilde" horiz-adv-x="618" d="M30 239Q30 265 34 296T54 356T100 402T182 421Q227 421 261 414T326 398T391 382T467 374Q507 374 519 386T532 410H588Q588 383 585 351T567 292T523 246T443 228Q398 228 364 235T298 252T232
268T153 276Q132 276 119 272T97 263T86 251T83 239H30Z" />
<glyph unicode="&#xa0;" glyph-name="nbspace" horiz-adv-x="300" />
<glyph unicode="&#xa1;" glyph-name="exclamdown" horiz-adv-x="343" d="M290 403H59V556H290V403ZM323 -171V-222H24V-171L71 349H277L323 -171Z" />
<glyph unicode="&#xa2;" glyph-name="cent" horiz-adv-x="554" d="M234 -104V-8Q128 10 68 80T8 278Q8 404 68 475T234 564V657H365V567Q429 559 470 543T540 508V310H368V328Q368 362 354 377T310 392Q282 392 267 377T252 328V242Q252 205 272 185T341 164Q390
164 439 169T534 182V25Q505 14 465 4T365 -12V-104H234Z" />
<glyph unicode="&#xa3;" glyph-name="sterling" horiz-adv-x="616" d="M25 440H73Q63 462 57 492T50 567Q50 612 67 652T121 724T212 773T345 792Q420 792 483 777T591 735V569H410V590Q408 598 396 608T355 618Q322 618 306 602T290 548Q290 520 296 494T311
440H477V315H330Q329 280 322 250T301 197Q321 189 341 183T391 177Q414 177 428 182T451 195T463 211T466 228H612Q612 190 606 148T578 69T514 10T402 -14Q367 -14 343 -9T297 3T253 14T202 20Q162 20 140 10T110 -10L24 76Q37 92 52 113T80 160T101 216T110
283Q110 291 110 299T109 315H25V440Z" />
<glyph unicode="&#xa4;" glyph-name="currency" horiz-adv-x="584" d="M8 160L88 240Q83 260 81 281T79 327Q79 374 88 412L8 493L116 601L181 535Q226 556 292 556Q358 556 403 535L469 601L576 493L496 413Q506 379 506 327Q506 278 496 239L576 160L469 53L402
119Q358 98 292 98Q225 98 182 119L116 53L8 160ZM222 327Q222 270 238 246T292 221Q330 221 346 245T363 327Q363 384 347 408T292 433Q254 433 238 409T222 327Z" />
<glyph unicode="&#xa5;" glyph-name="yen" horiz-adv-x="755" d="M395 614H360L419 439H429L488 614H453V778H755V614H720L630 454H720V375H586L548 307H720V228H527V164H587V0H187V164H247V228H45V307H224L185 375H45V454H140L48 614H12V778H395V614Z" />
<glyph unicode="&#xa6;" glyph-name="brokenbar" horiz-adv-x="255" d="M193 208V-327H62V208H193ZM62 406V940H193V406H62Z" />
<glyph unicode="&#xa7;" glyph-name="section" horiz-adv-x="604" d="M76 76Q160 63 188 61T240 58Q284 58 298 65T312 87Q312 94 309 99T298 108T274 116T235 127Q189 138 150 153T83 190T38 241T22 312Q22 399 86 448Q66 486 66 533Q66 572 80 605T125 663T204
702T321 716Q389 716 439 706T518 686V551Q482 556 444 560T363 565Q321 565 304 559T286 538Q286 531 289 526T300 518T324 510T362 502Q464 482 521 440T578 320Q578 278 563 240T519 177Q534 144 534 98Q534 9 473 -42T282 -94Q211 -94 159 -84T76 -63V76ZM398
299Q398 316 383 328T316 351Q269 360 246 360Q223 360 216 352T209 330Q209 310 227 299T302 278Q340 271 363 271Q386 271 392 278T398 299Z" />
<glyph unicode="&#xa8;" glyph-name="dieresis" horiz-adv-x="452" d="M15 778H182V611H15V778ZM271 778H437V611H271V778Z" />
<glyph unicode="&#xa9;" glyph-name="copyright" horiz-adv-x="714" d="M392 403H477V331Q460 320 432 310T356 300Q287 300 247 337T207 460Q207 546 246 583T355 620Q402 620 431 610T477 588V520H392V530Q392 558 355 558Q319 558 319 530V389Q319 362 355
362Q392 362 392 389V403ZM24 459Q24 528 50 588T121 694T227 766T357 792Q426 792 486 766T592 695T664 589T690 459Q690 390 664 330T593 224T487 152T357 126Q288 126 228 152T122 223T50 329T24 459ZM129 459Q129 411 147 370T195 298T267 249T357 231Q404
231 445 249T518 297T567 369T585 459Q585 506 567 547T518 620T446 669T357 687Q309 687 268 669T196 620T147 548T129 459Z" />
<glyph unicode="&#xaa;" glyph-name="ordfeminine" horiz-adv-x="337" d="M188 541Q179 529 158 515T101 500Q58 500 33 520T8 578Q8 626 51 650T188 674Q188 694 180 703T142 713Q113 713 83 709T26 698V774Q69 785 102 788T165 792Q205 792 231 785T274 762T296
724T303 671V589H325V507H188V541ZM188 624Q145 624 128 619T110 598Q110 579 141 579Q161 579 174 590T188 621V624Z" />
<glyph unicode="&#xab;" glyph-name="guillemotleft" horiz-adv-x="520" d="M210 284V269L289 61H158L42 253V300L158 492H289L210 284ZM431 284V269L510 61H379L263 253V300L379 492H510L431 284Z" />
<glyph unicode="&#xac;" glyph-name="logicalnot" horiz-adv-x="547" d="M340 124V282H40V426H501V124H340Z" />
<glyph unicode="&#xad;" glyph-name="uni00AD" horiz-adv-x="336" d="M22 206V370H313V206H22Z" />
<glyph unicode="&#xae;" glyph-name="registered" horiz-adv-x="714" d="M340 375H366V306H211V375H238V546H211V616H396Q447 616 474 596T501 527Q501 471 461 452V448Q479 444 489 434T499 401V375H519V306H398V398Q398 424 382 430T340 436V375ZM376 485Q386
485 391 490T396 510V531Q396 556 376 556H340V485H376ZM24 459Q24 528 50 588T121 694T227 766T357 792Q426 792 486 766T592 695T664 589T690 459Q690 390 664 330T593 224T487 152T357 126Q288 126 228 152T122 223T50 329T24 459ZM129 459Q129 411 147 370T195
298T267 249T357 231Q404 231 445 249T518 297T567 369T585 459Q585 506 567 547T518 620T446 669T357 687Q309 687 268 669T196 620T147 548T129 459Z" />
<glyph unicode="&#xaf;" glyph-name="macron" horiz-adv-x="667" d="M189 738H546V634H189V738Z" />
<glyph unicode="0;" glyph-name="degree" horiz-adv-x="252" d="M4 674Q4 698 13 719T38 757T75 782T122 792Q146 792 167 783T205 757T230 720T240 674Q240 649 231 628T205 590T168 565T122 556Q71 556 38 589T4 674ZM76 674Q76 655 89 642T122 628Q140
628 153 641T167 674Q167 692 154 705T122 719Q103 719 90 706T76 674Z" />
<glyph unicode="1;" glyph-name="plusminus" horiz-adv-x="577" d="M206 582V748H373V582H537V415H373V251H206V415H40V582H206ZM517 200V42H57V200H517Z" />
<glyph unicode="2;" glyph-name="twosuperior" horiz-adv-x="314" d="M24 533Q44 549 66 568T106 607T136 646T148 683Q148 700 139 706T112 713Q99 713 79 710T31 700V796Q50 806 85 814T160 823Q223 823 258 794T294 715Q294 666 265 621T185 533H304V429H24V533Z" />
<glyph unicode="3;" glyph-name="threesuperior" horiz-adv-x="264" d="M54 662Q75 662 88 664T108 669T117 678T119 690Q119 700 113 706T84 713Q70 713 54 712T21 709V802Q36 809 65 816T128 823Q183 823 218 795T254 722Q254 664 206 627Q232 611 247 589T262
534Q262 507 252 486T223 451T181 429T128 421Q69 421 18 439V539Q51 533 84 533Q106 533 113 540T120 561Q120 568 118 573T109 583T89 589T54 591V662Z" />
<glyph unicode="4;" glyph-name="acute" horiz-adv-x="279" d="M149 611H-11V626L98 778H312V751L149 611Z" />
<glyph unicode="5;" glyph-name="mu" horiz-adv-x="674" d="M44 392H0V556H274V228Q274 194 288 179T332 164Q361 164 375 179T390 228V392H336V556H620V164H664V0H390V68Q381 56 366 42T332 15T288 -5T237 -14L274 -222H44V392Z" />
<glyph unicode="6;" glyph-name="paragraph" horiz-adv-x="759" d="M523 -160V600Q503 602 487 606T453 615V-160H290V301Q219 301 167 319T81 369T31 447T14 547Q14 592 30 636T79 714T161 770T278 792Q332 792 372 784T447 767T519 750T604 742Q658 742
679 757T701 792H757Q757 769 755 746T746 700T725 659T687 624V-160H523Z" />
<glyph unicode="7;" glyph-name="periodcentered" horiz-adv-x="211" d="M22 472H178V320H22V472Z" />
<glyph unicode="8;" glyph-name="cedilla" horiz-adv-x="567" d="M251 0H346V-39Q391 -39 419 -62T447 -133Q447 -187 410 -216T306 -246Q271 -246 240 -241T183 -228V-157Q203 -162 232 -166T295 -171Q313 -171 321 -162T329 -139Q329 -125 321 -116T295
-107H251V0Z" />
<glyph unicode="9;" glyph-name="onesuperior" horiz-adv-x="261" d="M10 774L100 811H208V536H249V429H20V536H67V706H10V774Z" />
<glyph unicode="a;" glyph-name="ordmasculine" horiz-adv-x="322" d="M312 646Q312 571 271 536T161 500Q91 500 51 535T10 646Q10 719 50 755T161 792Q230 792 271 756T312 646ZM161 579Q200 579 200 611V681Q200 713 161 713Q122 713 122 681V611Q122 579
161 579Z" />
<glyph unicode="b;" glyph-name="guillemotright" horiz-adv-x="520" d="M231 492H362L478 300V253L362 61H231L310 269V284L231 492ZM10 492H141L257 300V253L141 61H10L89 269V284L10 492Z" />
<glyph unicode="c;" glyph-name="onequarter" horiz-adv-x="803" d="M528 778H670V746L206 0H63V32L528 778ZM576 181H631V262H758V181H797V85H758V0H631V85H459V167L507 381H619L576 181ZM-3 741L87 778H195V503H236V396H7V503H54V673H-3V741Z" />
<glyph unicode="d;" glyph-name="onehalf" horiz-adv-x="803" d="M528 778H670V746L206 0H63V32L528 778ZM492 104Q512 120 534 139T574 178T604 217T616 254Q616 271 607 277T580 284Q567 284 553 282T527 277L499 271V367Q517 376 548 385T628 394Q691 394
726 365T762 286Q762 237 733 192T653 104H772V0H492V104ZM-3 741L87 778H195V503H236V396H7V503H54V673H-3V741Z" />
<glyph unicode="e;" glyph-name="threequarters" horiz-adv-x="803" d="M528 778H670V746L206 0H63V32L528 778ZM576 181H631V262H758V181H797V85H758V0H631V85H459V167L507 381H619L576 181ZM40 631Q61 631 74 633T94 638T103 647T105 659Q105 669 99 675T70
682Q56 682 45 682T25 680L7 678V771Q21 778 48 785T114 792Q171 792 205 764T240 691Q240 633 192 596Q218 580 233 558T248 503Q248 476 238 455T209 420T167 398T114 390Q62 390 34 399L4 408V508L23 505Q41 502 70 502Q93 502 99 509T106 530Q106 537 104 542T95
552T75 558T40 560V631Z" />
<glyph unicode="f;" glyph-name="questiondown" horiz-adv-x="614" d="M473 345V291Q473 249 460 219T425 167T381 129T336 97T302 65T288 26Q288 9 301 -2T348 -14Q407 -14 461 5T559 45L612 -159Q558 -187 478 -211T296 -236Q228 -236 175 -220T84 -174T26
-105T6 -19Q6 40 23 77T65 139T120 183T175 222T217 271T234 345H473ZM473 392H235V556H473V392Z" />
<glyph unicode="0;" glyph-name="Agrave" horiz-adv-x="806" d="M408 164H468L451 244H316L300 164H360V0H18V164H58L227 778H591L760 164H800V0H408V164ZM338 350H430L389 549H379L338 350ZM150 926V952H401L510 856V841H313L150 926Z" />
<glyph unicode="1;" glyph-name="Aacute" horiz-adv-x="806" d="M408 164H468L451 244H316L300 164H360V0H18V164H58L227 778H591L760 164H800V0H408V164ZM338 350H430L389 549H379L338 350ZM480 841H283V856L392 952H643V926L480 841Z" />
<glyph unicode="2;" glyph-name="Acircumflex" horiz-adv-x="806" d="M408 164H468L451 244H316L300 164H360V0H18V164H58L227 778H591L760 164H800V0H408V164ZM338 350H430L389 549H379L338 350ZM408 898H385L306 841H138V856L265 952H528L655 856V841H487L408 898Z" />
<glyph unicode="3;" glyph-name="Atilde" horiz-adv-x="806" d="M408 164H468L451 244H316L300 164H360V0H18V164H58L227 778H591L760 164H800V0H408V164ZM338 350H430L389 549H379L338 350ZM143 836Q143 879 149 911T169 965T209 996T273 1007Q311 1007 345
1002T411 989T473 977T533 971Q568 971 580 983T592 1006H648Q648 963 643 931T624 878T586 846T525 835Q491 835 457 841T390 854T324 867T260 873Q226 873 211 860T196 836H143Z" />
<glyph unicode="4;" glyph-name="Adieresis" horiz-adv-x="806" d="M408 164H468L451 244H316L300 164H360V0H18V164H58L227 778H591L760 164H800V0H408V164ZM338 350H430L389 549H379L338 350ZM159 952H346V841H159V952ZM445 952H631V841H445V952Z" />
<glyph unicode="5;" glyph-name="Aring" horiz-adv-x="806" d="M408 164H468L451 244H316L300 164H360V0H18V164H58L227 778H591L760 164H800V0H408V164ZM338 350H430L389 549H379L338 350ZM276 914Q276 939 285 961T311 1000T350 1026T398 1036Q423 1036
445 1027T484 1001T510 962T520 914Q520 888 511 866T485 828T446 802T398 792Q372 792 350 801T312 827T286 866T276 914ZM358 914Q358 897 369 886T398 874Q414 874 425 885T437 914Q437 930 426 941T398 953Q381 953 370 942T358 914Z" />
<glyph unicode="6;" glyph-name="AE" horiz-adv-x="1126" d="M882 614H761V456H849V342H761V164H882V322H1106V0H431V164H481V244H344L315 164H375V0H-2V164H38L297 778H1106V476H882V614ZM386 360H481V591H471L386 360Z" />
<glyph unicode="7;" glyph-name="Ccedilla" horiz-adv-x="738" d="M468 319H708V60Q688 48 660 35T594 11T508 -7Q475 -12 435 -13V-40Q480 -40 508 -63T536 -134Q536 -188 499 -217T395 -247Q360 -247 329 -242T272 -229V-158Q292 -163 321 -167T384 -172Q402
-172 410 -163T418 -140Q418 -126 410 -117T384 -108H340V-11Q288 -6 243 8Q172 30 122 78T45 202T18 389Q18 498 45 575T121 700T242 770T400 792Q460 792 507 785T591 768T657 744T708 718V468H468V540Q468 579 451 596T400 614Q366 614 349 597T332 540V238Q332
199 349 182T400 164Q434 164 451 181T468 238V319Z" />
<glyph unicode="8;" glyph-name="Egrave" horiz-adv-x="735" d="M487 614H366V456H454V342H366V164H487V322H711V0H26V164H86V614H26V778H711V476H487V614ZM151 926V952H402L511 856V841H314L151 926Z" />
<glyph unicode="9;" glyph-name="Eacute" horiz-adv-x="735" d="M487 614H366V456H454V342H366V164H487V322H711V0H26V164H86V614H26V778H711V476H487V614ZM481 841H284V856L393 952H644V926L481 841Z" />
<glyph unicode="a;" glyph-name="Ecircumflex" horiz-adv-x="735" d="M487 614H366V456H454V342H366V164H487V322H711V0H26V164H86V614H26V778H711V476H487V614ZM409 898H386L307 841H139V856L266 952H529L656 856V841H488L409 898Z" />
<glyph unicode="b;" glyph-name="Edieresis" horiz-adv-x="735" d="M487 614H366V456H454V342H366V164H487V322H711V0H26V164H86V614H26V778H711V476H487V614ZM160 952H347V841H160V952ZM446 952H632V841H446V952Z" />
<glyph unicode="c;" glyph-name="Igrave" horiz-adv-x="438" d="M24 778H424V614H364V164H424V0H24V164H84V614H24V778ZM-13 926V952H238L347 856V841H150L-13 926Z" />
<glyph unicode="d;" glyph-name="Iacute" horiz-adv-x="438" d="M24 778H424V614H364V164H424V0H24V164H84V614H24V778ZM317 841H120V856L229 952H480V926L317 841Z" />
<glyph unicode="e;" glyph-name="Icircumflex" horiz-adv-x="438" d="M24 778H424V614H364V164H424V0H24V164H84V614H24V778ZM245 898H222L143 841H-25V856L102 952H365L492 856V841H324L245 898Z" />
<glyph unicode="f;" glyph-name="Idieresis" horiz-adv-x="438" d="M24 778H424V614H364V164H424V0H24V164H84V614H24V778ZM-4 952H183V841H-4V952ZM282 952H468V841H282V952Z" />
<glyph unicode="&#xd0;" glyph-name="Eth" horiz-adv-x="826" d="M28 778H444Q521 778 587 759T703 693T780 573T808 389Q808 279 780 205T703 85T588 20T444 0H28V164H88V311H17V475H88V613H28V778ZM426 164Q460 164 477 181T494 238V540Q494 579 476 596T426
614H368V475H429V311H368V164H426Z" />
<glyph unicode="&#xd1;" glyph-name="Ntilde" horiz-adv-x="952" d="M596 778H946V614H886V0H605L312 451V164H372V0H22V164H82V614H22V778H393L656 376V614H596V778ZM245 836Q245 879 251 911T271 965T311 996T375 1007Q413 1007 447 1002T513 989T575 977T635
971Q670 971 682 983T694 1006H750Q750 963 745 931T726 878T688 846T627 835Q593 835 559 841T492 854T426 867T362 873Q328 873 313 860T298 836H245Z" />
<glyph unicode="&#xd2;" glyph-name="Ograve" horiz-adv-x="798" d="M402 164Q436 164 453 181T470 238V540Q470 579 453 596T402 614Q368 614 351 597T334 540V238Q334 199 351 182T402 164ZM784 389Q784 279 757 203T681 78T560 8T402 -14Q315 -14 244 8T124
78T47 202T20 389Q20 498 47 575T123 700T244 770T402 792Q489 792 560 770T680 700T757 575T784 389ZM161 926V952H412L521 856V841H324L161 926Z" />
<glyph unicode="&#xd3;" glyph-name="Oacute" horiz-adv-x="798" d="M402 164Q436 164 453 181T470 238V540Q470 579 453 596T402 614Q368 614 351 597T334 540V238Q334 199 351 182T402 164ZM784 389Q784 279 757 203T681 78T560 8T402 -14Q315 -14 244 8T124
78T47 202T20 389Q20 498 47 575T123 700T244 770T402 792Q489 792 560 770T680 700T757 575T784 389ZM491 841H294V856L403 952H654V926L491 841Z" />
<glyph unicode="&#xd4;" glyph-name="Ocircumflex" horiz-adv-x="798" d="M402 164Q436 164 453 181T470 238V540Q470 579 453 596T402 614Q368 614 351 597T334 540V238Q334 199 351 182T402 164ZM784 389Q784 279 757 203T681 78T560 8T402 -14Q315 -14 244
8T124 78T47 202T20 389Q20 498 47 575T123 700T244 770T402 792Q489 792 560 770T680 700T757 575T784 389ZM419 898H396L317 841H149V856L276 952H539L666 856V841H498L419 898Z" />
<glyph unicode="&#xd5;" glyph-name="Otilde" horiz-adv-x="798" d="M402 164Q436 164 453 181T470 238V540Q470 579 453 596T402 614Q368 614 351 597T334 540V238Q334 199 351 182T402 164ZM784 389Q784 279 757 203T681 78T560 8T402 -14Q315 -14 244 8T124
78T47 202T20 389Q20 498 47 575T123 700T244 770T402 792Q489 792 560 770T680 700T757 575T784 389ZM154 836Q154 879 160 911T180 965T220 996T284 1007Q322 1007 356 1002T422 989T484 977T544 971Q579 971 591 983T603 1006H659Q659 963 654 931T635 878T597
846T536 835Q502 835 468 841T401 854T335 867T271 873Q237 873 222 860T207 836H154Z" />
<glyph unicode="&#xd6;" glyph-name="Odieresis" horiz-adv-x="798" d="M402 164Q436 164 453 181T470 238V540Q470 579 453 596T402 614Q368 614 351 597T334 540V238Q334 199 351 182T402 164ZM784 389Q784 279 757 203T681 78T560 8T402 -14Q315 -14 244 8T124
78T47 202T20 389Q20 498 47 575T123 700T244 770T402 792Q489 792 560 770T680 700T757 575T784 389ZM170 952H357V841H170V952ZM456 952H642V841H456V952Z" />
<glyph unicode="&#xd7;" glyph-name="multiply" horiz-adv-x="570" d="M285 209L156 80L32 203L161 332L32 462L156 586L285 456L415 586L538 462L408 332L538 203L415 80L285 209Z" />
<glyph unicode="&#xd8;" glyph-name="Oslash" horiz-adv-x="798" d="M784 389Q784 279 757 203T681 78T560 8T402 -14Q386 -14 370 -13L353 -114H282V-82L295 -4Q268 0 244 8Q173 30 124 78T47 202T20 389Q20 498 47 575T123 700T244 770T402 792Q415 792 427
791L442 879H513V847L502 784Q532 778 560 770Q631 748 680 700T757 575T784 389ZM402 164Q436 164 453 181T470 238V540Q470 557 467 569L399 164H402ZM351 596Q334 579 334 540V238V230L398 614Q367 613 351 596Z" />
<glyph unicode="&#xd9;" glyph-name="Ugrave" horiz-adv-x="795" d="M731 279Q731 198 709 143T644 52T543 2T410 -14Q335 -14 275 1T172 52T106 142T82 279V614H22V778H402V614H362V228Q362 194 376 179T420 164Q449 164 463 179T478 228V614H438V778H791V614H731V279ZM177
926V952H428L537 856V841H340L177 926Z" />
<glyph unicode="&#xda;" glyph-name="Uacute" horiz-adv-x="795" d="M731 279Q731 198 709 143T644 52T543 2T410 -14Q335 -14 275 1T172 52T106 142T82 279V614H22V778H402V614H362V228Q362 194 376 179T420 164Q449 164 463 179T478 228V614H438V778H791V614H731V279ZM507
841H310V856L419 952H670V926L507 841Z" />
<glyph unicode="&#xdb;" glyph-name="Ucircumflex" horiz-adv-x="795" d="M731 279Q731 198 709 143T644 52T543 2T410 -14Q335 -14 275 1T172 52T106 142T82 279V614H22V778H402V614H362V228Q362 194 376 179T420 164Q449 164 463 179T478 228V614H438V778H791V614H731V279ZM435
898H412L333 841H165V856L292 952H555L682 856V841H514L435 898Z" />
<glyph unicode="&#xdc;" glyph-name="Udieresis" horiz-adv-x="795" d="M731 279Q731 198 709 143T644 52T543 2T410 -14Q335 -14 275 1T172 52T106 142T82 279V614H22V778H402V614H362V228Q362 194 376 179T420 164Q449 164 463 179T478 228V614H438V778H791V614H731V279ZM186
952H373V841H186V952ZM472 952H658V841H472V952Z" />
<glyph unicode="&#xdd;" glyph-name="Yacute" horiz-adv-x="755" d="M395 614H360L419 439H429L488 614H453V778H755V614H720L527 268V164H587V0H187V164H247V268L48 614H12V778H395V614ZM507 841H310V856L419 952H670V926L507 841Z" />
<glyph unicode="&#xde;" glyph-name="Thorn" horiz-adv-x="762" d="M28 778H428V614H368V569H486Q537 569 580 561T654 534T704 484T722 404Q722 354 704 321T655 267T580 238T486 229H368V164H464V0H28V164H88V614H28V778ZM392 331Q412 331 426 341T440 375V391Q440
414 427 424T392 435H368V331H392Z" />
<glyph unicode="&#xdf;" glyph-name="germandbls" horiz-adv-x="707" d="M342 156L375 147Q389 143 404 141T431 138Q457 138 465 145T473 164Q473 178 460 188T421 214Q370 243 347 275T323 355Q323 386 335 415T361 470T387 521T399 567Q399 592 387 603T345
614Q315 614 304 602T292 555V0H18V164H62V392H18V556H64Q64 622 81 667T133 739T223 779T353 792Q411 792 460 782T544 750T598 693T618 609Q618 565 605 535T576 483T547 442T533 405Q533 397 535 391T544 378T563 363T597 342Q616 330 634 316T665 281T687 233T695
168Q695 129 683 96T645 38T582 0T491 -14Q441 -14 404 -4T342 17V156Z" />
<glyph unicode="&#xe0;" glyph-name="agrave" horiz-adv-x="652" d="M368 68Q359 56 344 42T308 15T258 -5T193 -14Q106 -14 57 26T8 142Q8 237 96 285T368 334Q368 362 350 377T276 392Q216 392 156 383T44 363V535Q95 549 169 559T321 570Q401 570 454 555T540
510T585 434T598 328V164H642V0H368V68ZM368 234Q306 234 279 226T252 196Q252 164 307 164Q368 164 368 228V234ZM100 751V778H314L423 626V611H263L100 751Z" />
<glyph unicode="&#xe1;" glyph-name="aacute" horiz-adv-x="652" d="M368 68Q359 56 344 42T308 15T258 -5T193 -14Q106 -14 57 26T8 142Q8 237 96 285T368 334Q368 362 350 377T276 392Q216 392 156 383T44 363V535Q95 549 169 559T321 570Q401 570 454 555T540
510T585 434T598 328V164H642V0H368V68ZM368 234Q306 234 279 226T252 196Q252 164 307 164Q368 164 368 228V234ZM366 611H206V626L315 778H529V751L366 611Z" />
<glyph unicode="&#xe2;" glyph-name="acircumflex" horiz-adv-x="652" d="M368 68Q359 56 344 42T308 15T258 -5T193 -14Q106 -14 57 26T8 142Q8 237 96 285T368 334Q368 362 350 377T276 392Q216 392 156 383T44 363V535Q95 549 169 559T321 570Q401 570 454
555T540 510T585 434T598 328V164H642V0H368V68ZM368 234Q306 234 279 226T252 196Q252 164 307 164Q368 164 368 228V234ZM330 676H321L259 611H110V626L227 778H424L541 626V611H392L330 676Z" />
<glyph unicode="&#xe3;" glyph-name="atilde" horiz-adv-x="652" d="M368 68Q359 56 344 42T308 15T258 -5T193 -14Q106 -14 57 26T8 142Q8 237 96 285T368 334Q368 362 350 377T276 392Q216 392 156 383T44 363V535Q95 549 169 559T321 570Q401 570 454 555T540
510T585 434T598 328V164H642V0H368V68ZM368 234Q306 234 279 226T252 196Q252 164 307 164Q368 164 368 228V234ZM115 622Q115 661 120 693T138 747T175 781T235 793Q263 793 290 786T343 770T394 754T445 747Q468 747 476 759T484 782H540Q540 743 536 712T520
658T486 623T427 611Q401 611 375 618T321 635T266 651T212 659Q189 659 179 646T168 622H115Z" />
<glyph unicode="&#xe4;" glyph-name="adieresis" horiz-adv-x="652" d="M368 68Q359 56 344 42T308 15T258 -5T193 -14Q106 -14 57 26T8 142Q8 237 96 285T368 334Q368 362 350 377T276 392Q216 392 156 383T44 363V535Q95 549 169 559T321 570Q401 570 454 555T540
510T585 434T598 328V164H642V0H368V68ZM368 234Q306 234 279 226T252 196Q252 164 307 164Q368 164 368 228V234ZM116 778H283V611H116V778ZM372 778H538V611H372V778Z" />
<glyph unicode="&#xe5;" glyph-name="aring" horiz-adv-x="652" d="M368 68Q359 56 344 42T308 15T258 -5T193 -14Q106 -14 57 26T8 142Q8 237 96 285T368 334Q368 362 350 377T276 392Q216 392 156 383T44 363V535Q95 549 169 559T321 570Q401 570 454 555T540
510T585 434T598 328V164H642V0H368V68ZM368 234Q306 234 279 226T252 196Q252 164 307 164Q368 164 368 228V234ZM195 725Q195 750 204 772T230 811T269 837T317 847Q342 847 364 838T403 812T429 773T439 725Q439 699 430 677T404 639T365 613T317 603Q291 603
269 612T231 638T205 677T195 725ZM277 725Q277 708 288 697T317 685Q333 685 344 696T356 725Q356 741 345 752T317 764Q300 764 289 753T277 725Z" />
<glyph unicode="&#xe6;" glyph-name="ae" horiz-adv-x="946" d="M668 570Q745 570 796 548T878 489T921 407T934 314V242H610V236Q610 200 630 182T705 164Q771 164 826 174T917 196V36Q899 27 876 19T822 3T754 -9T668 -14Q505 -14 429 88Q415 72 393 54T342
21T275 -4T193 -14Q106 -14 57 26T8 142Q8 235 94 284T368 334Q368 362 350 377T276 392Q216 392 156 383T44 363V535Q90 546 156 558T321 570Q378 570 422 559T499 526Q573 570 668 570ZM668 392Q639 392 625 377T610 328V322H726V328Q726 362 712 377T668 392ZM368
234Q314 234 283 227T252 196Q252 164 307 164Q368 164 368 228V234Z" />
<glyph unicode="&#xe7;" glyph-name="ccedilla" horiz-adv-x="554" d="M252 242Q252 205 272 185T341 164Q390 164 439 169T534 182V25Q515 18 493 11T444 -1T384 -10Q364 -12 340 -13V-39Q385 -39 413 -62T441 -133Q441 -187 404 -216T300 -246Q265 -246 234
-241T177 -228V-157Q197 -162 226 -166T289 -171Q307 -171 315 -162T323 -139Q323 -125 315 -116T289 -107H245V-9Q213 -5 185 4Q129 22 90 58T29 149T8 278Q8 351 29 406T89 497T185 552T310 570Q352 570 386 564T449 549T499 529T540 508V310H368V328Q368 362
354 377T310 392Q282 392 267 377T252 328V242Z" />
<glyph unicode="&#xe8;" glyph-name="egrave" horiz-adv-x="588" d="M310 570Q387 570 438 548T520 489T563 407T576 314V242H252V236Q252 200 272 182T347 164Q413 164 468 174T559 196V36Q541 27 518 19T464 3T396 -9T310 -14Q241 -14 185 4T90 58T29 149T8
278Q8 351 29 406T89 497T185 552T310 570ZM310 392Q281 392 267 377T252 328V322H368V328Q368 362 354 377T310 392ZM88 751V778H302L411 626V611H251L88 751Z" />
<glyph unicode="&#xe9;" glyph-name="eacute" horiz-adv-x="588" d="M310 570Q387 570 438 548T520 489T563 407T576 314V242H252V236Q252 200 272 182T347 164Q413 164 468 174T559 196V36Q541 27 518 19T464 3T396 -9T310 -14Q241 -14 185 4T90 58T29 149T8
278Q8 351 29 406T89 497T185 552T310 570ZM310 392Q281 392 267 377T252 328V322H368V328Q368 362 354 377T310 392ZM354 611H194V626L303 778H517V751L354 611Z" />
<glyph unicode="&#xea;" glyph-name="ecircumflex" horiz-adv-x="588" d="M310 570Q387 570 438 548T520 489T563 407T576 314V242H252V236Q252 200 272 182T347 164Q413 164 468 174T559 196V36Q541 27 518 19T464 3T396 -9T310 -14Q241 -14 185 4T90 58T29 149T8
278Q8 351 29 406T89 497T185 552T310 570ZM310 392Q281 392 267 377T252 328V322H368V328Q368 362 354 377T310 392ZM318 676H309L247 611H98V626L215 778H412L529 626V611H380L318 676Z" />
<glyph unicode="&#xeb;" glyph-name="edieresis" horiz-adv-x="588" d="M310 570Q387 570 438 548T520 489T563 407T576 314V242H252V236Q252 200 272 182T347 164Q413 164 468 174T559 196V36Q541 27 518 19T464 3T396 -9T310 -14Q241 -14 185 4T90 58T29 149T8
278Q8 351 29 406T89 497T185 552T310 570ZM310 392Q281 392 267 377T252 328V322H368V328Q368 362 354 377T310 392ZM104 778H271V611H104V778ZM360 778H526V611H360V778Z" />
<glyph unicode="&#xec;" glyph-name="igrave" horiz-adv-x="346" d="M292 164H336V0H18V164H62V392H18V556H292V164ZM205 751V778H419L528 626V611H368L205 751Z" />
<glyph unicode="&#xed;" glyph-name="iacute" horiz-adv-x="346" d="M292 164H336V0H18V164H62V392H18V556H292V164ZM214 611H54V626L163 778H377V751L214 611Z" />
<glyph unicode="&#xee;" glyph-name="icircumflex" horiz-adv-x="346" d="M292 164H336V0H18V164H62V392H18V556H292V164ZM435 676H426L364 611H215V626L332 778H529L646 626V611H497L435 676Z" />
<glyph unicode="&#xef;" glyph-name="idieresis" horiz-adv-x="346" d="M292 164H336V0H18V164H62V392H18V556H292V164ZM221 778H388V611H221V778ZM477 778H643V611H477V778Z" />
<glyph unicode="&#xf0;" glyph-name="eth" horiz-adv-x="606" d="M231 693Q217 708 204 719T179 738V759L293 830Q322 811 348 792T397 750L519 792H535V700L468 677Q607 511 612 292V278Q612 204 591 150T531 59T435 4T310 -14Q241 -14 185 4T90 58T29 149T8
278Q8 351 29 406T89 497T185 552T310 570H315Q304 596 291 617L175 578H159V669L231 693ZM310 164Q339 164 353 179T368 228V328Q368 362 354 377T310 392Q281 392 267 377T252 328V228Q252 194 266 179T310 164Z" />
<glyph unicode="&#xf1;" glyph-name="ntilde" horiz-adv-x="688" d="M362 164H406V328Q406 362 392 377T348 392Q319 392 305 377T290 328V164H334V0H16V164H60V392H16V556H290V488Q302 500 317 514T352 541T399 561T459 570Q541 570 588 512T636 328V164H680V0H362V164ZM161
622Q161 661 166 693T184 747T221 781T281 793Q309 793 336 786T389 770T440 754T491 747Q514 747 522 759T530 782H586Q586 743 582 712T566 658T532 623T473 611Q447 611 421 618T367 635T312 651T258 659Q235 659 225 646T214 622H161Z" />
<glyph unicode="&#xf2;" glyph-name="ograve" horiz-adv-x="620" d="M612 278Q612 204 591 150T531 59T435 4T310 -14Q241 -14 185 4T90 58T29 149T8 278Q8 351 29 406T89 497T185 552T310 570Q379 570 435 552T530 498T591 406T612 278ZM310 164Q339 164 353
179T368 228V328Q368 362 354 377T310 392Q281 392 267 377T252 328V228Q252 194 266 179T310 164ZM93 751V778H307L416 626V611H256L93 751Z" />
<glyph unicode="&#xf3;" glyph-name="oacute" horiz-adv-x="620" d="M612 278Q612 204 591 150T531 59T435 4T310 -14Q241 -14 185 4T90 58T29 149T8 278Q8 351 29 406T89 497T185 552T310 570Q379 570 435 552T530 498T591 406T612 278ZM310 164Q339 164 353
179T368 228V328Q368 362 354 377T310 392Q281 392 267 377T252 328V228Q252 194 266 179T310 164ZM359 611H199V626L308 778H522V751L359 611Z" />
<glyph unicode="&#xf4;" glyph-name="ocircumflex" horiz-adv-x="620" d="M612 278Q612 204 591 150T531 59T435 4T310 -14Q241 -14 185 4T90 58T29 149T8 278Q8 351 29 406T89 497T185 552T310 570Q379 570 435 552T530 498T591 406T612 278ZM310 164Q339 164
353 179T368 228V328Q368 362 354 377T310 392Q281 392 267 377T252 328V228Q252 194 266 179T310 164ZM323 676H314L252 611H103V626L220 778H417L534 626V611H385L323 676Z" />
<glyph unicode="&#xf5;" glyph-name="otilde" horiz-adv-x="620" d="M612 278Q612 204 591 150T531 59T435 4T310 -14Q241 -14 185 4T90 58T29 149T8 278Q8 351 29 406T89 497T185 552T310 570Q379 570 435 552T530 498T591 406T612 278ZM310 164Q339 164 353
179T368 228V328Q368 362 354 377T310 392Q281 392 267 377T252 328V228Q252 194 266 179T310 164ZM108 622Q108 661 113 693T131 747T168 781T228 793Q256 793 283 786T336 770T387 754T438 747Q461 747 469 759T477 782H533Q533 743 529 712T513 658T479 623T420
611Q394 611 368 618T314 635T259 651T205 659Q182 659 172 646T161 622H108Z" />
<glyph unicode="&#xf6;" glyph-name="odieresis" horiz-adv-x="620" d="M612 278Q612 204 591 150T531 59T435 4T310 -14Q241 -14 185 4T90 58T29 149T8 278Q8 351 29 406T89 497T185 552T310 570Q379 570 435 552T530 498T591 406T612 278ZM310 164Q339 164 353
179T368 228V328Q368 362 354 377T310 392Q281 392 267 377T252 328V228Q252 194 266 179T310 164ZM109 778H276V611H109V778ZM365 778H531V611H365V778Z" />
<glyph unicode="&#xf7;" glyph-name="divide" horiz-adv-x="521" d="M179 608H335V456H179V608ZM179 204H335V52H179V204ZM40 260V404H481V260H40Z" />
<glyph unicode="&#xf8;" glyph-name="oslash" horiz-adv-x="620" d="M612 278Q612 204 591 150T531 59T435 4T310 -14H293L275 -121H218V-95L232 -7Q208 -3 185 4Q129 22 90 58T29 149T8 278Q8 351 29 406T89 497T185 552T310 570H328L346 674H403V648L389 563Q413
559 435 552Q491 534 530 498T591 406T612 278ZM266 377Q252 362 252 328V228Q252 197 264 181L299 391Q278 389 266 377ZM353 179Q368 194 368 228V328Q368 357 357 373L322 164Q342 167 353 179Z" />
<glyph unicode="&#xf9;" glyph-name="ugrave" horiz-adv-x="676" d="M276 228Q276 194 290 179T334 164Q363 164 377 179T392 228V392H338V556H622V164H666V0H392V68Q380 55 365 41T329 15T283 -5T223 -14Q141 -14 94 44T46 228V392H2V556H276V228ZM101 751V778H315L424
626V611H264L101 751Z" />
<glyph unicode="&#xfa;" glyph-name="uacute" horiz-adv-x="676" d="M276 228Q276 194 290 179T334 164Q363 164 377 179T392 228V392H338V556H622V164H666V0H392V68Q380 55 365 41T329 15T283 -5T223 -14Q141 -14 94 44T46 228V392H2V556H276V228ZM367 611H207V626L316
778H530V751L367 611Z" />
<glyph unicode="&#xfb;" glyph-name="ucircumflex" horiz-adv-x="676" d="M276 228Q276 194 290 179T334 164Q363 164 377 179T392 228V392H338V556H622V164H666V0H392V68Q380 55 365 41T329 15T283 -5T223 -14Q141 -14 94 44T46 228V392H2V556H276V228ZM331 676H322L260
611H111V626L228 778H425L542 626V611H393L331 676Z" />
<glyph unicode="&#xfc;" glyph-name="udieresis" horiz-adv-x="676" d="M276 228Q276 194 290 179T334 164Q363 164 377 179T392 228V392H338V556H622V164H666V0H392V68Q380 55 365 41T329 15T283 -5T223 -14Q141 -14 94 44T46 228V392H2V556H276V228ZM117 778H284V611H117V778ZM373
778H539V611H373V778Z" />
<glyph unicode="&#xfd;" glyph-name="yacute" horiz-adv-x="648" d="M276 228Q276 194 290 179T334 164Q363 164 377 179T392 228V392H338V556H622V56Q622 -94 547 -165T321 -236Q249 -236 182 -227T67 -203V-39Q122 -49 171 -53T284 -58Q338 -58 365 -42T392
26V68Q380 55 365 41T329 15T283 -5T223 -14Q141 -14 94 44T46 228V392H2V556H276V228ZM371 611H211V626L320 778H534V751L371 611Z" />
<glyph unicode="&#xfe;" glyph-name="thorn" horiz-adv-x="652" d="M6 778H280V488Q289 500 303 514T338 541T382 561T435 570Q539 570 589 494T640 278Q640 139 590 63T435 -14Q406 -14 382 -6T338 15T304 41T280 68V-58H349V-222H6V-58H50V614H6V778ZM396 328Q396
362 382 377T338 392Q309 392 295 377T280 328V228Q280 194 294 179T338 164Q367 164 381 179T396 228V328Z" />
<glyph unicode="&#xff;" glyph-name="ydieresis" horiz-adv-x="648" d="M276 228Q276 194 290 179T334 164Q363 164 377 179T392 228V392H338V556H622V56Q622 -94 547 -165T321 -236Q249 -236 182 -227T67 -203V-39Q122 -49 171 -53T284 -58Q338 -58 365 -42T392
26V68Q380 55 365 41T329 15T283 -5T223 -14Q141 -14 94 44T46 228V392H2V556H276V228ZM121 778H288V611H121V778ZM377 778H543V611H377V778Z" />
</font>
</defs>
</svg>
